<?xml version="1.0" encoding="UTF-8"?>
<!DOCTYPE svg PUBLIC "-//W3C//DTD SVG 1.1//EN" "http://www.w3.org/Graphics/SVG/1.1/DTD/svg11.dtd">
<svg version="1.1" xmlns="http://www.w3.org/2000/svg" xmlns:xlink="http://www.w3.org/1999/xlink" x="0" y="0" width="75.456" height="87" viewBox="0, 0, 75.456, 87">
  <g id="Layer_1" transform="translate(-116, -95)">
    <g>
      <path d="M134.019,104.01 L164.99,104.01 L164.99,95 L134.104,95 L125.01,95 L125.01,152.437 L134.019,152.437 L134.019,128.223 L152.32,128.223 L152.32,119.214 L134.019,119.214 z" fill="#4E4D4D"/>
      <path d="M174,95 L174,129.378 C172.029,123.634 167.806,119.214 161.33,119.214 C161.33,122.226 161.33,125.211 161.33,128.223 C168.087,128.223 174,131.095 174,137.233 L174,152.437 L183.01,152.437 L183.01,95 L174,95 z" fill="#4E4D4D"/>
    </g>
    <g>
      <path d="M121.35,175.806 L123.602,175.806 L123.602,172.99 L127.262,172.99 L127.262,171.301 L123.602,171.301 L123.602,169.893 L127.825,169.893 L127.825,167.922 L121.35,167.922 z" fill="#4E4D4D"/>
      <path d="M138.243,170.963 L138.243,169.612 L135.99,169.612 L135.99,175.806 L138.243,175.806 L138.243,173.919 C138.243,172.512 138.806,171.864 139.932,171.864 L140.214,171.864 L140.214,169.612 C139.087,169.583 138.524,170.118 138.243,170.963 z" fill="#4E4D4D"/>
      <path d="M150.913,169.64 C149.871,169.64 149.139,169.837 148.435,170.118 L148.885,171.639 C149.42,171.414 149.899,171.301 150.547,171.301 C151.363,171.301 151.757,171.667 151.757,172.286 L151.757,172.399 C151.476,172.286 150.856,172.174 150.293,172.174 C148.857,172.174 147.9,172.821 147.9,174.088 C147.9,175.327 148.801,176.003 149.955,176.003 C150.744,176.003 151.448,175.693 151.729,175.243 L151.729,175.862 L153.982,175.862 L153.982,172.371 C153.982,171.526 153.728,170.879 153.278,170.428 C152.799,169.893 152.011,169.64 150.913,169.64 z M151.757,173.61 C151.757,174.229 151.335,174.623 150.716,174.623 C150.265,174.623 149.983,174.37 149.983,173.948 C149.983,173.469 150.321,173.159 150.941,173.159 C151.25,173.159 151.476,173.216 151.757,173.328 L151.757,173.61 z" fill="#4E4D4D"/>
      <path d="M170.171,169.583 C169.27,169.583 168.622,169.978 168.087,170.569 C167.75,169.95 167.102,169.583 166.285,169.583 C165.441,169.583 164.99,170.034 164.427,170.541 L164.427,169.612 L162.456,169.612 L162.456,175.806 L164.427,175.806 L164.427,172.512 C164.427,171.836 164.793,171.498 165.3,171.498 C165.807,171.498 166.117,171.836 166.117,172.512 L166.117,175.806 L168.369,175.806 L168.369,172.512 C168.369,171.836 168.735,171.498 169.242,171.498 C169.749,171.498 170.058,171.836 170.058,172.512 L170.058,175.806 L172.311,175.806 L172.311,171.808 C172.311,170.4 171.466,169.583 170.171,169.583 z" fill="#4E4D4D"/>
      <path d="M184.812,169.612 L183.657,173.272 L182.447,169.612 L180.194,169.612 L182.587,175.637 C182.447,175.834 182.306,175.918 182.081,175.918 C181.855,175.918 181.489,175.806 181.151,175.609 L180.476,177.101 C181.039,177.411 181.686,177.636 182.447,177.636 C183.657,177.636 184.249,177.017 184.755,175.609 L186.98,169.612 L184.812,169.612 z" fill="#4E4D4D"/>
      <path d="M189.204,176.369 L189.204,180.029 L185.825,180.029 L185.825,182 L191.456,182 L191.456,176.369 z" fill="#4E4D4D"/>
      <path d="M121.631,161.728 L116,161.728 L116,167.359 L117.971,167.359 L117.971,163.699 L121.631,163.699 z" fill="#4E4D4D"/>
    </g>
    <path d="M158.486,147.96 C158.486,150.433 156.482,152.437 154.01,152.437 C151.537,152.437 149.533,150.433 149.533,147.96 C149.533,145.488 151.537,143.484 154.01,143.484 C156.482,143.484 158.486,145.488 158.486,147.96 z" fill="#34A2D4"/>
  </g>
</svg>
